<svg width="146" height="111" viewBox="0 0 146 111" fill="none" xmlns="http://www.w3.org/2000/svg">
<path d="M1 110.499C2.16667 100.832 6.3 74.0988 13.5 44.4988C22.5 7.49883 26.5 -11.0012 26.5 9.49883C26.5 29.9988 28 54.4988 28 67.4988C28 80.4988 28 114.499 35 95.4988C42 76.4988 45.5 68.9988 50 57.4988C54.5 45.9988 62 29.9988 62.5 54.9988C63 79.9988 65 84.9988 75.5 57.4988C86 29.9988 88.5 57.4988 89.5 63.4988C90.5 69.4988 94 79.4988 101.5 63.4988C109 47.4988 113 48.4988 115 63.4988C117 78.4988 126.5 70.9988 131.5 61.9988C136.5 52.9988 146 35.9988 144.5 71.4988" stroke="#EB4B4D"/>
</svg>
