<svg width="40" height="58" viewBox="0 0 40 58" fill="none" xmlns="http://www.w3.org/2000/svg">
<path d="M9.50002 57.5C14.744 57.5 19 53.244 19 48V38.5H9.50002C4.25601 38.5 0 42.756 0 48C0 53.244 4.25601 57.5 9.50002 57.5Z" fill="#0ACF83"/>
<path d="M0 29.0003C0 23.7563 4.25601 19.5002 9.50002 19.5002H19V38.5003H9.50002C4.25601 38.5003 0 34.2443 0 29.0003Z" fill="#A259FF"/>
<path d="M0 10C0 4.75601 4.25601 0.5 9.50002 0.5H19V19.5H9.50002C4.25601 19.5 0 15.244 0 10Z" fill="#F24E1E"/>
<path d="M19 0.5H28.5C33.744 0.5 38 4.75601 38 10C38 15.244 33.744 19.5 28.5 19.5H19V0.5Z" fill="#FF7262"/>
<path d="M38 29.0003C38 34.2443 33.744 38.5003 28.5 38.5003C23.256 38.5003 19 34.2443 19 29.0003C19 23.7563 23.256 19.5002 28.5 19.5002C33.744 19.5002 38 23.7563 38 29.0003Z" fill="#1ABCFE"/>
</svg>
