<svg width="260" height="225" viewBox="0 0 260 225" fill="none" xmlns="http://www.w3.org/2000/svg">
<rect x="0.774414" y="0.638916" width="259" height="224" fill="white"/>
<path d="M25.0526 160.49C24.7708 161.841 25.638 163.165 26.9897 163.447C28.3413 163.729 29.6655 162.862 29.9474 161.51L25.0526 160.49ZM90 104.5L89.8686 102.003L90 104.5ZM178 115L177.641 112.526L178 115ZM227.882 35.7604C228.302 34.4451 227.576 33.0384 226.26 32.6184C224.945 32.1985 223.538 32.9243 223.118 34.2396L227.882 35.7604ZM29.9474 161.51C37.0569 127.417 60.9028 108.535 90.1314 106.997L89.8686 102.003C58.2972 103.665 32.6098 124.25 25.0526 160.49L29.9474 161.51ZM90.1314 106.997C108.689 106.02 121.713 109.786 134.66 113.288C147.656 116.804 160.574 120.052 178.359 117.474L177.641 112.526C160.926 114.948 148.844 111.946 135.965 108.462C123.037 104.964 109.311 100.98 89.8686 102.003L90.1314 106.997ZM178.359 117.474C193.577 115.269 203.73 100.978 211.062 84.9129C218.465 68.6905 223.525 49.4058 227.882 35.7604L223.118 34.2396C218.642 48.2608 213.751 66.9762 206.513 82.8371C199.203 98.8554 190.023 110.731 177.641 112.526L178.359 117.474Z" fill="#29B2FF"/>
<path d="M35.792 34.84V27.8H37.888V39H36.096L31.232 31.416V39H29.136V27.8H31.232L35.792 34.84ZM43.3934 30.792C44.1614 30.792 44.8494 30.984 45.4574 31.368C46.076 31.7413 46.556 32.248 46.8974 32.888C47.2387 33.528 47.4094 34.2373 47.4094 35.016C47.4094 35.272 47.388 35.5067 47.3454 35.72H41.1694C41.3294 36.2853 41.612 36.728 42.0174 37.048C42.4227 37.3573 42.94 37.512 43.5694 37.512C43.9534 37.512 44.3214 37.4267 44.6734 37.256C45.036 37.0853 45.308 36.8667 45.4894 36.6L47.0094 37.496C46.636 38.0507 46.1507 38.4773 45.5534 38.776C44.9667 39.064 44.2894 39.208 43.5214 39.208C42.668 39.208 41.9107 39.0267 41.2494 38.664C40.588 38.3013 40.076 37.8 39.7134 37.16C39.3614 36.52 39.1854 35.8 39.1854 35C39.1854 34.2107 39.3614 33.496 39.7134 32.856C40.076 32.216 40.5774 31.7147 41.2174 31.352C41.8574 30.9787 42.5827 30.792 43.3934 30.792ZM45.5534 34.168C45.468 33.656 45.228 33.256 44.8334 32.968C44.4494 32.6693 43.964 32.52 43.3774 32.52C42.972 32.52 42.5987 32.5947 42.2574 32.744C41.9267 32.8933 41.66 33.096 41.4574 33.352C41.2547 33.608 41.148 33.88 41.1374 34.168H45.5534ZM56.095 35.848L57.583 31H59.663L57.071 39H55.103L53.599 34.248L52.095 39H50.159L47.631 31H49.695L51.135 35.816L52.543 31H54.655L56.095 35.848ZM72.2236 37.448C71.829 37.992 71.333 38.424 70.7356 38.744C70.1383 39.064 69.493 39.224 68.7996 39.224C68.0423 39.224 67.3383 39.0373 66.6876 38.664C66.0476 38.28 65.5356 37.768 65.1516 37.128C64.7783 36.4773 64.5916 35.7733 64.5916 35.016C64.5916 34.2587 64.7783 33.56 65.1516 32.92C65.5356 32.2693 66.0476 31.7573 66.6876 31.384C67.3383 31 68.0423 30.808 68.7996 30.808C69.4823 30.808 70.1223 30.968 70.7196 31.288C71.317 31.5973 71.813 32.0187 72.2076 32.552L70.5756 33.656C70.0743 33.0693 69.4823 32.776 68.7996 32.776C68.3943 32.776 68.021 32.8773 67.6796 33.08C67.3383 33.2827 67.0663 33.5547 66.8636 33.896C66.661 34.2373 66.5596 34.6107 66.5596 35.016C66.5596 35.4213 66.661 35.7947 66.8636 36.136C67.0663 36.4773 67.3383 36.7493 67.6796 36.952C68.021 37.144 68.3943 37.24 68.7996 37.24C69.4823 37.24 70.0743 36.9467 70.5756 36.36L72.2236 37.448ZM78.3765 31H80.3605V39H78.3765V38.328C78.0885 38.5947 77.7685 38.808 77.4165 38.968C77.0645 39.128 76.6912 39.208 76.2965 39.208C75.8272 39.208 75.3472 39.112 74.8565 38.92C74.3765 38.7173 73.9605 38.36 73.6085 37.848C73.2672 37.336 73.0965 36.648 73.0965 35.784V31H75.0805V35.784C75.0805 36.3813 75.2458 36.8133 75.5765 37.08C75.9178 37.336 76.3125 37.464 76.7605 37.464C77.2085 37.464 77.5872 37.3093 77.8965 37C78.2165 36.68 78.3765 36.1733 78.3765 35.48V31ZM83.8301 33.24C83.8301 33.464 83.9528 33.6347 84.1981 33.752C84.4541 33.8587 84.8541 33.9707 85.3981 34.088C86.0168 34.216 86.5341 34.36 86.9501 34.52C87.3661 34.68 87.7235 34.936 88.0221 35.288C88.3315 35.6293 88.4861 36.0933 88.4861 36.68C88.4861 37.2027 88.3261 37.656 88.0061 38.04C87.6968 38.424 87.2808 38.7173 86.7581 38.92C86.2355 39.112 85.6648 39.208 85.0461 39.208C84.2035 39.208 83.4781 39.048 82.8701 38.728C82.2728 38.408 81.8301 37.9493 81.5421 37.352L83.1741 36.504C83.4621 37.24 84.0861 37.608 85.0461 37.608C85.4621 37.608 85.8195 37.528 86.1181 37.368C86.4168 37.208 86.5661 36.9787 86.5661 36.68C86.5661 36.424 86.4275 36.2373 86.1501 36.12C85.8835 35.992 85.4461 35.8533 84.8381 35.704C84.2088 35.5547 83.6968 35.4053 83.3021 35.256C82.9075 35.1067 82.5661 34.8773 82.2781 34.568C81.9901 34.248 81.8461 33.8267 81.8461 33.304C81.8461 32.792 81.9901 32.3493 82.2781 31.976C82.5661 31.592 82.9555 31.2987 83.4461 31.096C83.9368 30.8933 84.4755 30.792 85.0621 30.792C85.7555 30.792 86.3741 30.936 86.9181 31.224C87.4728 31.512 87.8995 31.9227 88.1981 32.456L86.5821 33.272C86.3048 32.6747 85.7981 32.376 85.0621 32.376C84.6888 32.376 84.3901 32.456 84.1661 32.616C83.9421 32.7653 83.8301 32.9733 83.8301 33.24ZM92.4795 36.264C92.4795 36.6267 92.5648 36.8773 92.7355 37.016C92.9062 37.1547 93.1782 37.224 93.5515 37.224C93.7755 37.224 94.0208 37.208 94.2875 37.176V39C93.7862 39.0533 93.3702 39.08 93.0395 39.08C92.1862 39.08 91.5462 38.888 91.1195 38.504C90.7035 38.1093 90.4955 37.4053 90.4955 36.392V32.776H88.9915V31H90.4955V29.032L92.4795 28.36V31H94.2555V32.776H92.4795V36.264ZM99.3778 39.224C98.6204 39.224 97.9164 39.0373 97.2658 38.664C96.6258 38.28 96.1138 37.768 95.7298 37.128C95.3564 36.4773 95.1698 35.7733 95.1698 35.016C95.1698 34.2587 95.3564 33.56 95.7298 32.92C96.1138 32.2693 96.6258 31.7573 97.2658 31.384C97.9164 31 98.6204 30.808 99.3778 30.808C100.135 30.808 100.834 31 101.474 31.384C102.124 31.7573 102.636 32.2693 103.01 32.92C103.394 33.56 103.586 34.2587 103.586 35.016C103.586 35.7733 103.394 36.4773 103.01 37.128C102.636 37.768 102.124 38.28 101.474 38.664C100.834 39.0373 100.135 39.224 99.3778 39.224ZM99.3618 37.24C99.7671 37.24 100.14 37.144 100.482 36.952C100.823 36.7493 101.095 36.4773 101.298 36.136C101.5 35.7947 101.602 35.4213 101.602 35.016C101.602 34.6107 101.5 34.2373 101.298 33.896C101.095 33.5547 100.823 33.2827 100.482 33.08C100.14 32.8773 99.7671 32.776 99.3618 32.776C98.9564 32.776 98.5831 32.8773 98.2418 33.08C97.9004 33.2827 97.6284 33.5547 97.4258 33.896C97.2338 34.2373 97.1378 34.6107 97.1378 35.016C97.1378 35.4213 97.2338 35.7947 97.4258 36.136C97.6284 36.4773 97.9004 36.7493 98.2418 36.952C98.5831 37.144 98.9564 37.24 99.3618 37.24ZM113.975 30.792C114.444 30.792 114.919 30.8933 115.399 31.096C115.879 31.288 116.289 31.64 116.631 32.152C116.983 32.664 117.159 33.352 117.159 34.216V39H115.191V34.216C115.191 33.6187 115.02 33.192 114.679 32.936C114.348 32.6693 113.959 32.536 113.511 32.536C113.127 32.536 112.791 32.6533 112.503 32.888C112.215 33.112 112.028 33.4747 111.943 33.976V34.216V39H109.975V34.216C109.975 33.6187 109.804 33.192 109.463 32.936C109.132 32.6693 108.737 32.536 108.279 32.536C107.916 32.536 107.585 32.648 107.287 32.872C106.999 33.096 106.812 33.4533 106.727 33.944V39H104.743V31H106.727V31.624C106.993 31.368 107.297 31.1653 107.639 31.016C107.991 30.8667 108.364 30.792 108.759 30.792C109.249 30.792 109.745 30.8987 110.247 31.112C110.748 31.3253 111.148 31.6827 111.447 32.184C111.724 31.7893 112.087 31.4587 112.535 31.192C112.983 30.9253 113.463 30.792 113.975 30.792ZM122.487 30.792C123.255 30.792 123.943 30.984 124.551 31.368C125.17 31.7413 125.65 32.248 125.991 32.888C126.332 33.528 126.503 34.2373 126.503 35.016C126.503 35.272 126.482 35.5067 126.439 35.72H120.263C120.423 36.2853 120.706 36.728 121.111 37.048C121.516 37.3573 122.034 37.512 122.663 37.512C123.047 37.512 123.415 37.4267 123.767 37.256C124.13 37.0853 124.402 36.8667 124.583 36.6L126.103 37.496C125.73 38.0507 125.244 38.4773 124.647 38.776C124.06 39.064 123.383 39.208 122.615 39.208C121.762 39.208 121.004 39.0267 120.343 38.664C119.682 38.3013 119.17 37.8 118.807 37.16C118.455 36.52 118.279 35.8 118.279 35C118.279 34.2107 118.455 33.496 118.807 32.856C119.17 32.216 119.671 31.7147 120.311 31.352C120.951 30.9787 121.676 30.792 122.487 30.792ZM124.647 34.168C124.562 33.656 124.322 33.256 123.927 32.968C123.543 32.6693 123.058 32.52 122.471 32.52C122.066 32.52 121.692 32.5947 121.351 32.744C121.02 32.8933 120.754 33.096 120.551 33.352C120.348 33.608 120.242 33.88 120.231 34.168H124.647ZM132.51 30.84L132.366 32.712C132.302 32.6907 132.19 32.68 132.03 32.68C131.369 32.68 130.82 32.872 130.382 33.256C129.956 33.64 129.742 34.1627 129.742 34.824V39H127.758V31H129.742V32.344C129.924 31.9173 130.233 31.56 130.67 31.272C131.108 30.984 131.636 30.84 132.254 30.84H132.51ZM135.19 33.24C135.19 33.464 135.312 33.6347 135.558 33.752C135.814 33.8587 136.214 33.9707 136.758 34.088C137.376 34.216 137.894 34.36 138.31 34.52C138.726 34.68 139.083 34.936 139.382 35.288C139.691 35.6293 139.846 36.0933 139.846 36.68C139.846 37.2027 139.686 37.656 139.366 38.04C139.056 38.424 138.64 38.7173 138.118 38.92C137.595 39.112 137.024 39.208 136.406 39.208C135.563 39.208 134.838 39.048 134.23 38.728C133.632 38.408 133.19 37.9493 132.902 37.352L134.534 36.504C134.822 37.24 135.446 37.608 136.406 37.608C136.822 37.608 137.179 37.528 137.478 37.368C137.776 37.208 137.926 36.9787 137.926 36.68C137.926 36.424 137.787 36.2373 137.51 36.12C137.243 35.992 136.806 35.8533 136.198 35.704C135.568 35.5547 135.056 35.4053 134.662 35.256C134.267 35.1067 133.926 34.8773 133.638 34.568C133.35 34.248 133.206 33.8267 133.206 33.304C133.206 32.792 133.35 32.3493 133.638 31.976C133.926 31.592 134.315 31.2987 134.806 31.096C135.296 30.8933 135.835 30.792 136.422 30.792C137.115 30.792 137.734 30.936 138.278 31.224C138.832 31.512 139.259 31.9227 139.558 32.456L137.942 33.272C137.664 32.6747 137.158 32.376 136.422 32.376C136.048 32.376 135.75 32.456 135.526 32.616C135.302 32.7653 135.19 32.9733 135.19 33.24Z" fill="#013941"/>
<circle cx="126" cy="109" r="12.5" fill="#01B969" stroke="white" stroke-width="3"/>
<line x1="19.5566" y1="184.311" x2="247.08" y2="184.311" stroke="#E5EBEC"/>
</svg>
