<svg width="54" height="54" viewBox="0 0 54 54" fill="none" xmlns="http://www.w3.org/2000/svg">
<path d="M49.4583 1H5.54167C3.5895 1 2 2.5895 2 4.54167V8.91775C2 12.1945 3.47617 15.2361 6.04883 17.2633L19.5709 27.9167H35.4277L48.9498 17.2633C51.5238 15.2361 53 12.1931 53 8.91775V4.54167C53 2.5895 51.4105 1 49.4583 1Z" fill="#01B969"/>
<path d="M20.417 32.1667V49.8751C20.417 50.6712 20.8618 51.4008 21.5687 51.7649C21.8762 51.9222 22.2091 52.0001 22.542 52.0001C22.9769 52.0001 23.4104 51.8669 23.7773 51.6048L33.694 44.5215C34.2522 44.122 34.5837 43.4774 34.5837 42.7917V32.1667H20.417Z" fill="#024C5B"/>
</svg>
