<svg width="54" height="54" viewBox="0 0 54 54" fill="none" xmlns="http://www.w3.org/2000/svg">
<path d="M30.2049 1.53833C30.8636 1.53833 31.3703 2.07568 31.3703 2.71539V10.9548C31.3703 15.6374 35.1958 19.4757 39.8321 19.5013C41.7576 19.5013 43.2777 19.5269 44.4431 19.5269L44.8747 19.525C45.6535 19.519 46.7021 19.5013 47.6099 19.5013C48.2433 19.5013 48.75 20.013 48.75 20.6527V41.2257C48.75 47.5716 43.6577 52.7148 37.3746 52.7148H17.2081C10.621 52.7148 5.25 47.3157 5.25 40.6627V13.0786C5.25 6.73274 10.3676 1.53833 16.676 1.53833H30.2049ZM32.9157 34.5471H19.1335C18.0948 34.5471 17.2334 35.3916 17.2334 36.4407C17.2334 37.4898 18.0948 38.3598 19.1335 38.3598H32.9157C33.9544 38.3598 34.8158 37.4898 34.8158 36.4407C34.8158 35.3916 33.9544 34.5471 32.9157 34.5471ZM27.6967 21.753H19.1335C18.0948 21.753 17.2334 22.623 17.2334 23.6721C17.2334 24.7213 18.0948 25.5657 19.1335 25.5657H27.6967C28.7354 25.5657 29.5968 24.7213 29.5968 23.6721C29.5968 22.623 28.7354 21.753 27.6967 21.753ZM35.0621 3.85662C35.0621 2.75377 36.3871 2.20618 37.1446 3.00198C39.8833 5.87809 44.6691 10.9062 47.3444 13.7158C48.0842 14.4911 47.542 15.7782 46.4754 15.7807C44.3929 15.7884 41.938 15.7807 40.1721 15.7628C37.3701 15.7628 35.0621 13.4317 35.0621 10.6017V3.85662Z" fill="#01B969"/>
<path d="M27.6972 21.7534H19.134C18.0953 21.7534 17.2339 22.6234 17.2339 23.6725C17.2339 24.7217 18.0953 25.5661 19.134 25.5661H27.6972C28.7359 25.5661 29.5973 24.7217 29.5973 23.6725C29.5973 22.6234 28.7359 21.7534 27.6972 21.7534Z" fill="#024C5B"/>
<path d="M32.9162 34.5475H19.134C18.0953 34.5475 17.2339 35.3919 17.2339 36.4411C17.2339 37.4902 18.0953 38.3602 19.134 38.3602H32.9162C33.9549 38.3602 34.8163 37.4902 34.8163 36.4411C34.8163 35.3919 33.9549 34.5475 32.9162 34.5475Z" fill="#024C5B"/>
<path fill-rule="evenodd" clip-rule="evenodd" d="M37.1441 3.00229C36.3865 2.2065 35.0615 2.75409 35.0615 3.85694V10.602C35.0615 13.4321 37.3695 15.7631 40.1716 15.7631C41.9374 15.7811 44.3924 15.7887 46.4749 15.7811C47.5415 15.7785 48.0837 14.4914 47.3439 13.7161C46.0081 12.3133 44.1463 10.3575 42.2759 8.39269C40.4 6.42213 38.5154 4.44243 37.1441 3.00229Z" fill="#FDB52A"/>
</svg>
