<svg width="259" height="234" viewBox="0 0 259 234" fill="none" xmlns="http://www.w3.org/2000/svg">
<path d="M0 0L259 0V234H0L0 0Z" fill="white"/>
<rect opacity="0.9" x="34" y="109.624" width="10" height="50.3759" rx="5" fill="#FDB52A"/>
<rect x="52" y="70.3311" width="10" height="89.6692" rx="5" fill="#29B2FF"/>
<rect opacity="0.9" x="142" y="60.2557" width="10" height="99.7444" rx="5" fill="#FDB52A"/>
<rect x="160" y="84.436" width="10" height="75.5639" rx="5" fill="#29B2FF"/>
<rect opacity="0.9" x="196" y="26.0002" width="10" height="134" rx="5" fill="#FDB52A"/>
<rect x="214" y="108" width="10" height="52" rx="5" fill="#29B2FF"/>
<rect opacity="0.9" x="88" y="107.609" width="10" height="52.391" rx="5" fill="#FDB52A"/>
<rect x="106" y="97.5339" width="10" height="62.4662" rx="5" fill="#29B2FF"/>
<line x1="27" y1="178.5" x2="241" y2="178.5" stroke="#E5EBEC"/>
<path d="M71.0205 205L69.0325 201.486H66.8765V205H65.3225V195.2H69.2145C69.7838 195.2 70.3065 195.34 70.7825 195.62C71.2678 195.9 71.6505 196.283 71.9305 196.768C72.2198 197.244 72.3645 197.767 72.3645 198.336C72.3645 198.943 72.2058 199.498 71.8885 200.002C71.5711 200.506 71.1511 200.889 70.6285 201.15L72.7985 205H71.0205ZM66.8765 196.684V200.002H69.2145C69.6718 200.002 70.0638 199.839 70.3905 199.512C70.7171 199.186 70.8805 198.794 70.8805 198.336C70.8805 197.879 70.7171 197.492 70.3905 197.174C70.0638 196.848 69.6718 196.684 69.2145 196.684H66.8765ZM76.785 197.818C77.4663 197.818 78.073 197.986 78.605 198.322C79.137 198.649 79.5523 199.097 79.851 199.666C80.1496 200.226 80.299 200.842 80.299 201.514C80.299 201.626 80.2803 201.804 80.243 202.046H74.587C74.7083 202.606 74.9696 203.054 75.371 203.39C75.7816 203.726 76.2996 203.894 76.925 203.894C77.3076 203.894 77.6716 203.81 78.017 203.642C78.3716 203.474 78.633 203.255 78.801 202.984L79.949 203.656C79.6316 204.142 79.2116 204.52 78.689 204.79C78.1663 205.052 77.569 205.182 76.897 205.182C76.1503 205.182 75.4876 205.024 74.909 204.706C74.3396 204.389 73.8963 203.95 73.579 203.39C73.271 202.83 73.117 202.2 73.117 201.5C73.117 200.81 73.271 200.184 73.579 199.624C73.8963 199.064 74.3303 198.626 74.881 198.308C75.441 197.982 76.0756 197.818 76.785 197.818ZM78.899 200.884C78.8243 200.334 78.5956 199.9 78.213 199.582C77.8396 199.265 77.3636 199.106 76.785 199.106C76.3836 199.106 76.015 199.19 75.679 199.358C75.343 199.517 75.077 199.736 74.881 200.016C74.685 200.287 74.5823 200.576 74.573 200.884H78.899ZM83.9919 203.264L86.0079 198H87.5759L84.8879 205H83.0819L80.4079 198H81.9619L83.9919 203.264ZM91.4549 197.818C92.1362 197.818 92.7429 197.986 93.2749 198.322C93.8069 198.649 94.2222 199.097 94.5209 199.666C94.8195 200.226 94.9689 200.842 94.9689 201.514C94.9689 201.626 94.9502 201.804 94.9129 202.046H89.2569C89.3782 202.606 89.6395 203.054 90.0409 203.39C90.4515 203.726 90.9695 203.894 91.5949 203.894C91.9775 203.894 92.3415 203.81 92.6869 203.642C93.0415 203.474 93.3029 203.255 93.4709 202.984L94.6189 203.656C94.3015 204.142 93.8815 204.52 93.3589 204.79C92.8362 205.052 92.2389 205.182 91.5669 205.182C90.8202 205.182 90.1575 205.024 89.5789 204.706C89.0095 204.389 88.5662 203.95 88.2489 203.39C87.9409 202.83 87.7869 202.2 87.7869 201.5C87.7869 200.81 87.9409 200.184 88.2489 199.624C88.5662 199.064 89.0002 198.626 89.5509 198.308C90.1109 197.982 90.7455 197.818 91.4549 197.818ZM93.5689 200.884C93.4942 200.334 93.2655 199.9 92.8829 199.582C92.5095 199.265 92.0335 199.106 91.4549 199.106C91.0535 199.106 90.6849 199.19 90.3489 199.358C90.0129 199.517 89.7469 199.736 89.5509 200.016C89.3549 200.287 89.2522 200.576 89.2429 200.884H93.5689ZM99.5526 197.818C99.9632 197.818 100.379 197.907 100.799 198.084C101.228 198.252 101.597 198.56 101.905 199.008C102.213 199.456 102.367 200.058 102.367 200.814V205H100.897V200.814C100.897 200.217 100.729 199.788 100.393 199.526C100.057 199.256 99.6646 199.12 99.2166 199.12C98.7779 199.12 98.3999 199.274 98.0826 199.582C97.7652 199.89 97.6066 200.39 97.6066 201.08V205H96.1366V198H97.6066V198.7C97.8586 198.439 98.1479 198.229 98.4746 198.07C98.8106 197.902 99.1699 197.818 99.5526 197.818ZM108.384 198H109.854V205H108.384V204.3C108.132 204.562 107.838 204.776 107.502 204.944C107.175 205.103 106.821 205.182 106.438 205.182C106.027 205.182 105.607 205.098 105.178 204.93C104.758 204.753 104.394 204.44 104.086 203.992C103.778 203.544 103.624 202.942 103.624 202.186V198H105.094V202.186C105.094 202.784 105.257 203.213 105.584 203.474C105.92 203.736 106.312 203.866 106.76 203.866C107.199 203.866 107.577 203.712 107.894 203.404C108.221 203.096 108.384 202.597 108.384 201.906V198ZM114.724 197.818C115.406 197.818 116.012 197.986 116.544 198.322C117.076 198.649 117.492 199.097 117.79 199.666C118.089 200.226 118.238 200.842 118.238 201.514C118.238 201.626 118.22 201.804 118.182 202.046H112.526C112.648 202.606 112.909 203.054 113.31 203.39C113.721 203.726 114.239 203.894 114.864 203.894C115.247 203.894 115.611 203.81 115.956 203.642C116.311 203.474 116.572 203.255 116.74 202.984L117.888 203.656C117.571 204.142 117.151 204.52 116.628 204.79C116.106 205.052 115.508 205.182 114.836 205.182C114.09 205.182 113.427 205.024 112.848 204.706C112.279 204.389 111.836 203.95 111.518 203.39C111.21 202.83 111.056 202.2 111.056 201.5C111.056 200.81 111.21 200.184 111.518 199.624C111.836 199.064 112.27 198.626 112.82 198.308C113.38 197.982 114.015 197.818 114.724 197.818ZM116.838 200.884C116.764 200.334 116.535 199.9 116.152 199.582C115.779 199.265 115.303 199.106 114.724 199.106C114.323 199.106 113.954 199.19 113.618 199.358C113.282 199.517 113.016 199.736 112.82 200.016C112.624 200.287 112.522 200.576 112.512 200.884H116.838Z" fill="#7D888A"/>
<circle opacity="0.9" cx="50" cy="199" r="7" fill="#FDB52A"/>
<path d="M155.604 200.772V203.53H159.846V205H154.05V195.2H159.776V196.67H155.604V199.302H159.426V200.772H155.604ZM165.731 198H167.537L164.961 201.5L167.537 205L165.731 205.014L164.051 202.732L162.371 205.014L160.565 205L163.141 201.5L160.565 198H162.371L164.051 200.282L165.731 198ZM172.392 197.832C173.092 197.832 173.708 197.991 174.24 198.308C174.772 198.626 175.182 199.064 175.472 199.624C175.77 200.184 175.92 200.81 175.92 201.5C175.92 202.191 175.77 202.816 175.472 203.376C175.182 203.936 174.772 204.38 174.24 204.706C173.708 205.024 173.092 205.182 172.392 205.182C171.934 205.182 171.491 205.094 171.062 204.916C170.642 204.73 170.268 204.473 169.942 204.146V207.8H168.472V198H169.942V198.854C170.268 198.537 170.642 198.29 171.062 198.112C171.491 197.926 171.934 197.832 172.392 197.832ZM172.21 203.754C172.63 203.754 173.008 203.656 173.344 203.46C173.689 203.264 173.96 202.998 174.156 202.662C174.352 202.317 174.45 201.93 174.45 201.5C174.45 201.071 174.352 200.684 174.156 200.338C173.96 199.993 173.689 199.722 173.344 199.526C173.008 199.33 172.63 199.232 172.21 199.232C171.79 199.232 171.407 199.33 171.062 199.526C170.716 199.722 170.441 199.998 170.236 200.352C170.04 200.698 169.942 201.085 169.942 201.514C169.942 201.944 170.04 202.331 170.236 202.676C170.441 203.012 170.716 203.278 171.062 203.474C171.407 203.661 171.79 203.754 172.21 203.754ZM180.415 197.818C181.096 197.818 181.703 197.986 182.235 198.322C182.767 198.649 183.182 199.097 183.481 199.666C183.78 200.226 183.929 200.842 183.929 201.514C183.929 201.626 183.91 201.804 183.873 202.046H178.217C178.338 202.606 178.6 203.054 179.001 203.39C179.412 203.726 179.93 203.894 180.555 203.894C180.938 203.894 181.302 203.81 181.647 203.642C182.002 203.474 182.263 203.255 182.431 202.984L183.579 203.656C183.262 204.142 182.842 204.52 182.319 204.79C181.796 205.052 181.199 205.182 180.527 205.182C179.78 205.182 179.118 205.024 178.539 204.706C177.97 204.389 177.526 203.95 177.209 203.39C176.901 202.83 176.747 202.2 176.747 201.5C176.747 200.81 176.901 200.184 177.209 199.624C177.526 199.064 177.96 198.626 178.511 198.308C179.071 197.982 179.706 197.818 180.415 197.818ZM182.529 200.884C182.454 200.334 182.226 199.9 181.843 199.582C181.47 199.265 180.994 199.106 180.415 199.106C180.014 199.106 179.645 199.19 179.309 199.358C178.973 199.517 178.707 199.736 178.511 200.016C178.315 200.287 178.212 200.576 178.203 200.884H182.529ZM188.513 197.818C188.923 197.818 189.339 197.907 189.759 198.084C190.188 198.252 190.557 198.56 190.865 199.008C191.173 199.456 191.327 200.058 191.327 200.814V205H189.857V200.814C189.857 200.217 189.689 199.788 189.353 199.526C189.017 199.256 188.625 199.12 188.177 199.12C187.738 199.12 187.36 199.274 187.043 199.582C186.725 199.89 186.567 200.39 186.567 201.08V205H185.097V198H186.567V198.7C186.819 198.439 187.108 198.229 187.435 198.07C187.771 197.902 188.13 197.818 188.513 197.818ZM194.026 199.932C194.026 200.166 194.142 200.338 194.376 200.45C194.618 200.553 195.006 200.67 195.538 200.8C196.079 200.922 196.527 201.052 196.882 201.192C197.236 201.323 197.54 201.533 197.792 201.822C198.053 202.112 198.184 202.504 198.184 202.998C198.184 203.446 198.053 203.838 197.792 204.174C197.53 204.501 197.176 204.753 196.728 204.93C196.289 205.098 195.804 205.182 195.272 205.182C194.553 205.182 193.937 205.042 193.424 204.762C192.91 204.473 192.537 204.072 192.304 203.558L193.508 202.928C193.648 203.283 193.867 203.549 194.166 203.726C194.474 203.894 194.842 203.978 195.272 203.978C195.673 203.978 196.018 203.894 196.308 203.726C196.606 203.558 196.756 203.32 196.756 203.012C196.756 202.742 196.62 202.546 196.35 202.424C196.088 202.294 195.673 202.158 195.104 202.018C194.553 201.878 194.11 201.748 193.774 201.626C193.447 201.496 193.162 201.3 192.92 201.038C192.677 200.768 192.556 200.413 192.556 199.974C192.556 199.545 192.677 199.167 192.92 198.84C193.162 198.514 193.489 198.262 193.9 198.084C194.31 197.907 194.768 197.818 195.272 197.818C195.869 197.818 196.401 197.949 196.868 198.21C197.344 198.462 197.708 198.817 197.96 199.274L196.756 199.876C196.494 199.307 196 199.022 195.272 199.022C194.889 199.022 194.586 199.106 194.362 199.274C194.138 199.433 194.026 199.652 194.026 199.932ZM202.604 197.818C203.286 197.818 203.892 197.986 204.424 198.322C204.956 198.649 205.372 199.097 205.67 199.666C205.969 200.226 206.118 200.842 206.118 201.514C206.118 201.626 206.1 201.804 206.062 202.046H200.406C200.528 202.606 200.789 203.054 201.19 203.39C201.601 203.726 202.119 203.894 202.744 203.894C203.127 203.894 203.491 203.81 203.836 203.642C204.191 203.474 204.452 203.255 204.62 202.984L205.768 203.656C205.451 204.142 205.031 204.52 204.508 204.79C203.986 205.052 203.388 205.182 202.716 205.182C201.97 205.182 201.307 205.024 200.728 204.706C200.159 204.389 199.716 203.95 199.398 203.39C199.09 202.83 198.936 202.2 198.936 201.5C198.936 200.81 199.09 200.184 199.398 199.624C199.716 199.064 200.15 198.626 200.7 198.308C201.26 197.982 201.895 197.818 202.604 197.818ZM204.718 200.884C204.644 200.334 204.415 199.9 204.032 199.582C203.659 199.265 203.183 199.106 202.604 199.106C202.203 199.106 201.834 199.19 201.498 199.358C201.162 199.517 200.896 199.736 200.7 200.016C200.504 200.287 200.402 200.576 200.392 200.884H204.718ZM208.518 199.932C208.518 200.166 208.635 200.338 208.868 200.45C209.111 200.553 209.498 200.67 210.03 200.8C210.571 200.922 211.019 201.052 211.374 201.192C211.729 201.323 212.032 201.533 212.284 201.822C212.545 202.112 212.676 202.504 212.676 202.998C212.676 203.446 212.545 203.838 212.284 204.174C212.023 204.501 211.668 204.753 211.22 204.93C210.781 205.098 210.296 205.182 209.764 205.182C209.045 205.182 208.429 205.042 207.916 204.762C207.403 204.473 207.029 204.072 206.796 203.558L208 202.928C208.14 203.283 208.359 203.549 208.658 203.726C208.966 203.894 209.335 203.978 209.764 203.978C210.165 203.978 210.511 203.894 210.8 203.726C211.099 203.558 211.248 203.32 211.248 203.012C211.248 202.742 211.113 202.546 210.842 202.424C210.581 202.294 210.165 202.158 209.596 202.018C209.045 201.878 208.602 201.748 208.266 201.626C207.939 201.496 207.655 201.3 207.412 201.038C207.169 200.768 207.048 200.413 207.048 199.974C207.048 199.545 207.169 199.167 207.412 198.84C207.655 198.514 207.981 198.262 208.392 198.084C208.803 197.907 209.26 197.818 209.764 197.818C210.361 197.818 210.893 197.949 211.36 198.21C211.836 198.462 212.2 198.817 212.452 199.274L211.248 199.876C210.987 199.307 210.492 199.022 209.764 199.022C209.381 199.022 209.078 199.106 208.854 199.274C208.63 199.433 208.518 199.652 208.518 199.932Z" fill="#7D888A"/>
<circle cx="140" cy="199" r="7" fill="#29B2FF"/>
</svg>
