<svg width="54" height="54" viewBox="0 0 54 54" fill="none" xmlns="http://www.w3.org/2000/svg">
<path d="M37.8359 20.6377H48.6274V9.84619" stroke="#FDB52A" stroke-width="6.6183" stroke-linecap="round" stroke-linejoin="round"/>
<path d="M13.0156 13.0161C14.8511 11.178 17.0309 9.71974 19.4304 8.72482C21.8299 7.72989 24.402 7.21777 26.9996 7.21777C29.5972 7.21777 32.1693 7.72989 34.5688 8.72482C36.9683 9.71974 39.1481 11.178 40.9835 13.0161L48.6274 20.6376" stroke="#FDB52A" stroke-width="6.6183" stroke-linecap="round" stroke-linejoin="round"/>
<path d="M16.1635 33.3623H5.37207V44.1538" stroke="#01B969" stroke-width="6.6183" stroke-linecap="round" stroke-linejoin="round"/>
<path d="M40.9839 40.9838C39.1485 42.8219 36.9687 44.2801 34.5692 45.275C32.1697 46.27 29.5975 46.7821 27 46.7821C24.4024 46.7821 21.8303 46.27 19.4308 45.275C17.0313 44.2801 14.8515 42.8219 13.016 40.9838L5.37207 33.3623" stroke="#01B969" stroke-width="6.6183" stroke-linecap="round" stroke-linejoin="round"/>
</svg>
