<svg width="54" height="55" viewBox="0 0 54 55" fill="none" xmlns="http://www.w3.org/2000/svg">
<path fill-rule="evenodd" clip-rule="evenodd" d="M33.0678 20.9973C32.5452 20.1014 31.5861 19.5505 30.5489 19.5505H13.4856C12.4484 19.5505 11.4893 20.1014 10.9667 20.9973L2.46121 35.5782C1.93155 36.4862 1.93155 37.6089 2.46121 38.5169L10.9667 53.0978C11.4893 53.9937 12.4484 54.5446 13.4856 54.5446H30.5489C31.5861 54.5446 32.5452 53.9937 33.0678 53.0978L41.5733 38.5169C42.103 37.6089 42.103 36.4862 41.5733 35.5782L33.0678 20.9973ZM22.0173 45.256C26.6103 45.256 30.3337 41.5326 30.3337 36.9395C30.3337 32.3465 26.6103 28.6231 22.0173 28.6231C17.4242 28.6231 13.7008 32.3465 13.7008 36.9395C13.7008 41.5326 17.4242 45.256 22.0173 45.256Z" fill="#01B969"/>
<path fill-rule="evenodd" clip-rule="evenodd" d="M44.2539 1.79226C43.8579 1.13416 43.1311 0.729492 42.3451 0.729492H29.4143C28.6283 0.729492 27.9014 1.13417 27.5054 1.79226L21.0598 12.5029C20.6584 13.1699 20.6584 13.9946 21.0598 14.6616L27.5054 25.3722C27.9014 26.0303 28.6283 26.435 29.4143 26.435H42.3451C43.1311 26.435 43.8579 26.0303 44.2539 25.3722L50.6995 14.6616C51.1009 13.9946 51.1009 13.1699 50.6995 12.5029L44.2539 1.79226ZM35.8797 19.6119C39.3604 19.6119 42.182 16.8768 42.182 13.5029C42.182 10.129 39.3604 7.39388 35.8797 7.39388C32.399 7.39388 29.5773 10.129 29.5773 13.5029C29.5773 16.8768 32.399 19.6119 35.8797 19.6119Z" fill="#FDB52A"/>
<path fill-rule="evenodd" clip-rule="evenodd" d="M36.2398 26.435L33.0677 20.9971C32.5451 20.1012 31.586 19.5503 30.5488 19.5503H24.002L27.5056 25.3723C27.9016 26.0304 28.6285 26.435 29.4144 26.435H36.2398Z" fill="#024C5B"/>
</svg>
