<svg width="54" height="54" viewBox="0 0 54 54" fill="none" xmlns="http://www.w3.org/2000/svg">
<path d="M21.1875 3.47998C19.0466 3.47998 17.3125 5.21404 17.3125 7.35498C17.3125 7.38792 17.3239 7.42043 17.3239 7.45337C16.9984 7.41656 16.6789 7.35498 16.3437 7.35498C11.5291 7.35498 7.625 11.259 7.625 16.0737C7.625 16.9863 7.8024 17.8481 8.06396 18.6735C5.46384 20.4114 3.75 23.3684 3.75 26.73C3.75 30.0915 5.46384 33.0486 8.06396 34.7865C7.8024 35.6119 7.625 36.4737 7.625 37.3862C7.625 41.9006 11.0696 45.5666 15.4658 46.0142C15.8804 48.2675 17.8453 49.98 20.2187 49.98C22.8944 49.98 25.0625 47.8119 25.0625 45.1362V44.1675C25.0625 42.0304 23.3246 40.2925 21.1875 40.2925C20.1161 40.2925 19.25 39.4245 19.25 38.355C19.25 37.2855 20.1161 36.4175 21.1875 36.4175C22.6057 36.4175 23.9174 36.8295 25.0625 37.496V20.8607C23.4447 22.1007 21.4413 22.855 19.25 22.855C18.1786 22.855 17.3125 21.987 17.3125 20.9175C17.3125 19.848 18.1786 18.98 19.25 18.98C22.4546 18.98 25.0625 16.3721 25.0625 13.1675V7.35498C25.0625 5.21404 23.3284 3.47998 21.1875 3.47998Z" fill="#01B969"/>
<path d="M32.8125 3.47998C30.6716 3.47998 28.9375 5.21404 28.9375 7.35498V13.1675C28.9375 16.3721 31.5454 18.98 34.75 18.98C35.8214 18.98 36.6875 19.848 36.6875 20.9175C36.6875 21.987 35.8214 22.855 34.75 22.855C32.5587 22.855 30.5553 22.1026 28.9375 20.8645V45.1362C28.9375 47.8119 31.1056 49.98 33.7812 49.98C36.1547 49.98 38.1196 48.2675 38.5342 46.0142C42.8296 45.5763 46.1917 42.0581 46.3447 37.6852C45.1396 38.1114 43.8504 38.355 42.5 38.355C41.4286 38.355 40.5625 37.487 40.5625 36.4175C40.5625 35.348 41.4286 34.48 42.5 34.48C46.7741 34.48 50.25 31.0041 50.25 26.73C50.25 23.3684 48.5362 20.4114 45.936 18.6735C46.1976 17.8481 46.375 16.9863 46.375 16.0737C46.375 11.259 42.4709 7.35498 37.6562 7.35498C37.3211 7.35498 37.0016 7.41656 36.6761 7.45337C36.6761 7.42043 36.6875 7.38792 36.6875 7.35498C36.6875 5.21404 34.9534 3.47998 32.8125 3.47998Z" fill="#024C5B"/>
</svg>
