<svg width="259" height="258" viewBox="0 0 259 258" fill="none" xmlns="http://www.w3.org/2000/svg">
<rect y="-0.00012207" width="259" height="258" fill="white"/>
<path d="M223.5 129C223.5 141.41 221.056 153.698 216.307 165.163C211.558 176.629 204.597 187.046 195.822 195.821C187.046 204.597 176.629 211.557 165.164 216.306C153.698 221.056 141.41 223.5 129 223.5C116.59 223.5 104.302 221.056 92.8364 216.306C81.3711 211.557 70.9535 204.597 62.1784 195.821C53.4033 187.046 46.4425 176.629 41.6934 165.163C36.9443 153.698 34.5 141.41 34.5 129C34.5 116.59 36.9443 104.302 41.6934 92.8363C46.4425 81.371 53.4033 70.9534 62.1784 62.1783C70.9536 53.4031 81.3712 46.4423 92.8364 41.6933C104.302 36.9442 116.59 34.4999 129 34.4999C141.41 34.4999 153.698 36.9442 165.164 41.6933C176.629 46.4423 187.046 53.4032 195.822 62.1783C204.597 70.9534 211.558 81.371 216.307 92.8363C221.056 104.302 223.5 116.59 223.5 129L223.5 129Z" stroke="#E5EBEC" stroke-width="15"/>
<path d="M223.5 129C223.5 152.448 214.782 175.059 199.041 192.439C183.3 209.818 161.659 220.725 138.325 223.039C114.991 225.353 91.6303 218.909 72.7823 204.959C53.9343 191.01 40.9456 170.551 36.3404 147.559" stroke="#01B969" stroke-width="15" stroke-linecap="round"/>
<path d="M183.209 51.5942C200.35 63.5982 213.021 80.9519 219.236 100.934C225.451 120.915 224.858 142.395 217.55 162.003" stroke="#FD832A" stroke-width="15" stroke-linecap="round"/>
<path d="M105.2 37.5459C122.489 33.0467 140.699 33.5403 157.719 38.9695C174.739 44.3986 189.871 54.5408 201.361 68.2202" stroke="#29B2FF" stroke-width="15" stroke-linecap="round"/>
<path d="M54.2739 71.153C61.8705 61.3398 71.3256 53.119 82.0992 46.9598C92.8729 40.8007 104.754 36.824 117.065 35.2566" stroke="#FDB52A" stroke-width="15" stroke-linecap="round"/>
<path d="M109.897 123.56H113.197V129.016H109.897V135H104.177V129.016H89.0853V123.56L98.7213 104.2H105.101L95.5093 123.56H104.177V116.696H109.897V123.56ZM135.267 118.94C137.848 120.407 139.139 122.768 139.139 126.024C139.139 128.987 138.112 131.319 136.059 133.02C134.035 134.721 131.248 135.572 127.699 135.572C124.12 135.572 121.304 134.721 119.251 133.02C117.227 131.319 116.215 128.987 116.215 126.024C116.215 122.768 117.52 120.407 120.131 118.94C117.99 117.62 116.919 115.537 116.919 112.692C116.919 109.876 117.872 107.661 119.779 106.048C121.715 104.435 124.355 103.628 127.699 103.628C131.014 103.628 133.624 104.435 135.531 106.048C137.467 107.661 138.435 109.876 138.435 112.692C138.435 115.537 137.379 117.62 135.267 118.94ZM127.699 108.776C126.086 108.776 124.81 109.128 123.871 109.832C122.962 110.536 122.507 111.489 122.507 112.692C122.507 113.895 122.962 114.848 123.871 115.552C124.81 116.227 126.086 116.564 127.699 116.564C129.312 116.564 130.574 116.227 131.483 115.552C132.392 114.848 132.847 113.895 132.847 112.692C132.847 111.489 132.392 110.536 131.483 109.832C130.574 109.128 129.312 108.776 127.699 108.776ZM127.699 130.292C129.518 130.292 130.97 129.881 132.055 129.06C133.17 128.239 133.727 127.109 133.727 125.672C133.727 124.264 133.184 123.179 132.099 122.416C131.014 121.653 129.547 121.272 127.699 121.272C125.851 121.272 124.37 121.653 123.255 122.416C122.17 123.179 121.627 124.264 121.627 125.672C121.627 127.109 122.184 128.239 123.299 129.06C124.414 129.881 125.88 130.292 127.699 130.292ZM169.789 134.956L162.617 135L152.805 122.724L149.769 126.244V135H144.005V104.2H149.769V117.4L161.341 104.2H168.733L156.633 118.28L169.789 134.956Z" fill="#013941"/>
<path d="M103.169 159L100.613 154.482H97.8412V159H95.8432V146.4H100.847C101.579 146.4 102.251 146.58 102.863 146.94C103.487 147.3 103.979 147.792 104.339 148.416C104.711 149.028 104.897 149.7 104.897 150.432C104.897 151.212 104.693 151.926 104.285 152.574C103.877 153.222 103.337 153.714 102.665 154.05L105.455 159H103.169ZM97.8412 148.308V152.574H100.847C101.435 152.574 101.939 152.364 102.359 151.944C102.779 151.524 102.989 151.02 102.989 150.432C102.989 149.844 102.779 149.346 102.359 148.938C101.939 148.518 101.435 148.308 100.847 148.308H97.8412ZM110.581 149.766C111.457 149.766 112.237 149.982 112.921 150.414C113.605 150.834 114.139 151.41 114.523 152.142C114.907 152.862 115.099 153.654 115.099 154.518C115.099 154.662 115.075 154.89 115.027 155.202H107.755C107.911 155.922 108.247 156.498 108.763 156.93C109.291 157.362 109.957 157.578 110.761 157.578C111.253 157.578 111.721 157.47 112.165 157.254C112.621 157.038 112.957 156.756 113.173 156.408L114.649 157.272C114.241 157.896 113.701 158.382 113.029 158.73C112.357 159.066 111.589 159.234 110.725 159.234C109.765 159.234 108.913 159.03 108.169 158.622C107.437 158.214 106.867 157.65 106.459 156.93C106.063 156.21 105.865 155.4 105.865 154.5C105.865 153.612 106.063 152.808 106.459 152.088C106.867 151.368 107.425 150.804 108.133 150.396C108.853 149.976 109.669 149.766 110.581 149.766ZM113.299 153.708C113.203 153 112.909 152.442 112.417 152.034C111.937 151.626 111.325 151.422 110.581 151.422C110.065 151.422 109.591 151.53 109.159 151.746C108.727 151.95 108.385 152.232 108.133 152.592C107.881 152.94 107.749 153.312 107.737 153.708H113.299ZM119.847 156.768L122.439 150H124.455L120.999 159H118.677L115.239 150H117.237L119.847 156.768ZM129.442 149.766C130.318 149.766 131.098 149.982 131.782 150.414C132.466 150.834 133 151.41 133.384 152.142C133.768 152.862 133.96 153.654 133.96 154.518C133.96 154.662 133.936 154.89 133.888 155.202H126.616C126.772 155.922 127.108 156.498 127.624 156.93C128.152 157.362 128.818 157.578 129.622 157.578C130.114 157.578 130.582 157.47 131.026 157.254C131.482 157.038 131.818 156.756 132.034 156.408L133.51 157.272C133.102 157.896 132.562 158.382 131.89 158.73C131.218 159.066 130.45 159.234 129.586 159.234C128.626 159.234 127.774 159.03 127.03 158.622C126.298 158.214 125.728 157.65 125.32 156.93C124.924 156.21 124.726 155.4 124.726 154.5C124.726 153.612 124.924 152.808 125.32 152.088C125.728 151.368 126.286 150.804 126.994 150.396C127.714 149.976 128.53 149.766 129.442 149.766ZM132.16 153.708C132.064 153 131.77 152.442 131.278 152.034C130.798 151.626 130.186 151.422 129.442 151.422C128.926 151.422 128.452 151.53 128.02 151.746C127.588 151.95 127.246 152.232 126.994 152.592C126.742 152.94 126.61 153.312 126.598 153.708H132.16ZM139.853 149.766C140.381 149.766 140.915 149.88 141.455 150.108C142.007 150.324 142.481 150.72 142.877 151.296C143.273 151.872 143.471 152.646 143.471 153.618V159H141.581V153.618C141.581 152.85 141.365 152.298 140.933 151.962C140.501 151.614 139.997 151.44 139.421 151.44C138.857 151.44 138.371 151.638 137.963 152.034C137.555 152.43 137.351 153.072 137.351 153.96V159H135.461V150H137.351V150.9C137.675 150.564 138.047 150.294 138.467 150.09C138.899 149.874 139.361 149.766 139.853 149.766ZM151.208 150H153.098V159H151.208V158.1C150.884 158.436 150.506 158.712 150.074 158.928C149.654 159.132 149.198 159.234 148.706 159.234C148.178 159.234 147.638 159.126 147.086 158.91C146.546 158.682 146.078 158.28 145.682 157.704C145.286 157.128 145.088 156.354 145.088 155.382V150H146.978V155.382C146.978 156.15 147.188 156.702 147.608 157.038C148.04 157.374 148.544 157.542 149.12 157.542C149.684 157.542 150.17 157.344 150.578 156.948C150.998 156.552 151.208 155.91 151.208 155.022V150ZM159.36 149.766C160.236 149.766 161.016 149.982 161.7 150.414C162.384 150.834 162.918 151.41 163.302 152.142C163.686 152.862 163.878 153.654 163.878 154.518C163.878 154.662 163.854 154.89 163.806 155.202H156.534C156.69 155.922 157.026 156.498 157.542 156.93C158.07 157.362 158.736 157.578 159.54 157.578C160.032 157.578 160.5 157.47 160.944 157.254C161.4 157.038 161.736 156.756 161.952 156.408L163.428 157.272C163.02 157.896 162.48 158.382 161.808 158.73C161.136 159.066 160.368 159.234 159.504 159.234C158.544 159.234 157.692 159.03 156.948 158.622C156.216 158.214 155.646 157.65 155.238 156.93C154.842 156.21 154.644 155.4 154.644 154.5C154.644 153.612 154.842 152.808 155.238 152.088C155.646 151.368 156.204 150.804 156.912 150.396C157.632 149.976 158.448 149.766 159.36 149.766ZM162.078 153.708C161.982 153 161.688 152.442 161.196 152.034C160.716 151.626 160.104 151.422 159.36 151.422C158.844 151.422 158.37 151.53 157.938 151.746C157.506 151.95 157.164 152.232 156.912 152.592C156.66 152.94 156.528 153.312 156.516 153.708H162.078Z" fill="#7D888A"/>
</svg>
