<svg width="259" height="224" viewBox="0 0 259 224" fill="none" xmlns="http://www.w3.org/2000/svg">
<g clip-path="url(#clip0_3268_31894)">
<rect width="259" height="224" fill="white"/>
<rect width="258.954" height="223.639" fill="white"/>
<path d="M96.7186 111.888H99.8466V115.084C102.612 115.401 104.913 116.421 106.749 118.144L104.131 121.476C102.861 120.252 101.365 119.504 99.6426 119.232V124.264C101.207 124.649 102.521 125.091 103.587 125.59C104.675 126.066 105.559 126.757 106.239 127.664C106.941 128.571 107.293 129.738 107.293 131.166C107.293 133.206 106.624 134.849 105.287 136.096C103.972 137.343 102.159 138.079 99.8466 138.306V141.4H96.7186V138.34C93.3866 138.091 90.712 136.912 88.6946 134.804L91.2786 131.336C92.8426 133.013 94.7806 133.999 97.0926 134.294V128.65C95.5286 128.287 94.214 127.879 93.1486 127.426C92.0833 126.95 91.1993 126.27 90.4966 125.386C89.794 124.479 89.4426 123.289 89.4426 121.816C89.4426 120.66 89.7373 119.595 90.3266 118.62C90.916 117.645 91.7546 116.841 92.8426 116.206C93.9533 115.571 95.2453 115.186 96.7186 115.05V111.888ZM94.2366 121.374C94.2366 121.963 94.4633 122.428 94.9166 122.768C95.3926 123.108 96.118 123.414 97.0926 123.686V118.994C96.2086 119.039 95.506 119.289 94.9846 119.742C94.486 120.173 94.2366 120.717 94.2366 121.374ZM99.6426 134.294C100.527 134.181 101.218 133.909 101.717 133.478C102.238 133.025 102.499 132.435 102.499 131.71C102.499 131.03 102.272 130.52 101.819 130.18C101.365 129.84 100.64 129.511 99.6426 129.194V134.294ZM124.472 125.352C125.402 126.009 126.127 126.825 126.648 127.8C127.17 128.752 127.43 129.795 127.43 130.928C127.43 132.333 127.034 133.603 126.24 134.736C125.47 135.869 124.404 136.765 123.044 137.422C121.707 138.057 120.211 138.374 118.556 138.374C117.015 138.374 115.587 138.079 114.272 137.49C112.98 136.901 111.938 136.096 111.144 135.076C110.351 134.033 109.92 132.866 109.852 131.574L114.442 131.234C114.646 132.095 115.134 132.809 115.904 133.376C116.675 133.943 117.559 134.226 118.556 134.226C119.848 134.226 120.914 133.897 121.752 133.24C122.591 132.583 123.01 131.744 123.01 130.724C123.01 129.704 122.591 128.865 121.752 128.208C120.914 127.551 119.848 127.222 118.556 127.222H117.298L117.332 123.618H118.556C119.69 123.618 120.619 123.346 121.344 122.802C122.092 122.258 122.466 121.555 122.466 120.694C122.466 119.833 122.092 119.13 121.344 118.586C120.596 118.019 119.644 117.736 118.488 117.736C117.672 117.736 116.913 117.929 116.21 118.314C115.508 118.699 115.009 119.198 114.714 119.81L110.328 119.538C110.487 118.45 110.94 117.464 111.688 116.58C112.459 115.696 113.434 115.005 114.612 114.506C115.791 114.007 117.083 113.758 118.488 113.758C120.075 113.758 121.492 114.064 122.738 114.676C124.008 115.265 124.994 116.093 125.696 117.158C126.422 118.201 126.784 119.379 126.784 120.694C126.784 121.623 126.58 122.485 126.172 123.278C125.787 124.071 125.22 124.763 124.472 125.352ZM148.088 133.784V137.966H130.374V136.946C130.533 134.702 131.19 132.526 132.346 130.418C133.502 128.31 135.27 126.78 137.65 125.828C138.149 125.601 138.523 125.443 138.772 125.352C139.905 124.876 140.778 124.479 141.39 124.162C142.025 123.822 142.546 123.425 142.954 122.972C143.385 122.496 143.6 121.941 143.6 121.306C143.6 120.558 143.385 119.923 142.954 119.402C142.546 118.858 142.025 118.45 141.39 118.178C140.755 117.906 140.121 117.77 139.486 117.77C138.103 117.77 136.913 118.053 135.916 118.62C134.941 119.164 134.363 120.003 134.182 121.136L130 120.694C130.204 119.243 130.759 117.997 131.666 116.954C132.573 115.911 133.706 115.118 135.066 114.574C136.449 114.03 137.922 113.758 139.486 113.758C140.891 113.758 142.24 114.053 143.532 114.642C144.824 115.231 145.867 116.081 146.66 117.192C147.453 118.303 147.85 119.606 147.85 121.102C147.85 122.598 147.487 123.845 146.762 124.842C146.059 125.839 145.13 126.667 143.974 127.324C142.818 127.959 141.265 128.65 139.316 129.398C137.593 130.078 136.358 131.54 135.61 133.784H148.088ZM171.67 137.966L166.128 138L158.546 128.514L156.2 131.234V138H151.746V114.2H156.2V124.4L165.142 114.2H170.854L161.504 125.08L171.67 137.966Z" fill="#013941"/>
<path d="M85.0736 151.228V151.2H86.6276V161H85.0736V154.014L82.1476 158.928H81.7556L78.8296 153.986V161.014H77.2756V151.2H78.8296V151.228L78.8856 151.2L81.9516 156.366L85.0176 151.2L85.0736 151.228ZM91.6092 161.182C90.9465 161.182 90.3305 161.019 89.7612 160.692C89.2012 160.356 88.7578 159.908 88.4312 159.348C88.1045 158.779 87.9412 158.163 87.9412 157.5C87.9412 156.837 88.1045 156.226 88.4312 155.666C88.7578 155.106 89.2012 154.663 89.7612 154.336C90.3305 154 90.9465 153.832 91.6092 153.832C92.2718 153.832 92.8832 154 93.4432 154.336C94.0125 154.663 94.4605 155.106 94.7872 155.666C95.1138 156.226 95.2772 156.837 95.2772 157.5C95.2772 158.163 95.1138 158.779 94.7872 159.348C94.4605 159.908 94.0125 160.356 93.4432 160.692C92.8832 161.019 92.2718 161.182 91.6092 161.182ZM91.6092 159.712C92.0105 159.712 92.3792 159.614 92.7152 159.418C93.0512 159.213 93.3172 158.942 93.5132 158.606C93.7092 158.27 93.8072 157.901 93.8072 157.5C93.8072 157.099 93.7092 156.73 93.5132 156.394C93.3172 156.058 93.0512 155.792 92.7152 155.596C92.3792 155.4 92.0105 155.302 91.6092 155.302C91.2078 155.302 90.8392 155.4 90.5032 155.596C90.1672 155.792 89.8965 156.058 89.6912 156.394C89.4952 156.73 89.3972 157.099 89.3972 157.5C89.3972 157.901 89.4952 158.27 89.6912 158.606C89.8965 158.942 90.1672 159.213 90.5032 159.418C90.8392 159.614 91.2078 159.712 91.6092 159.712ZM99.8983 153.818C100.309 153.818 100.724 153.907 101.144 154.084C101.574 154.252 101.942 154.56 102.25 155.008C102.558 155.456 102.712 156.058 102.712 156.814V161H101.242V156.814C101.242 156.217 101.074 155.787 100.738 155.526C100.402 155.255 100.01 155.12 99.5623 155.12C99.1236 155.12 98.7456 155.274 98.4283 155.582C98.1109 155.89 97.9523 156.389 97.9523 157.08V161H96.4823V154H97.9523V154.7C98.2043 154.439 98.4936 154.229 98.8203 154.07C99.1563 153.902 99.5156 153.818 99.8983 153.818ZM106.269 158.704C106.269 159.077 106.344 159.334 106.493 159.474C106.652 159.614 106.904 159.684 107.249 159.684C107.445 159.684 107.669 159.67 107.921 159.642V161C107.501 161.047 107.146 161.07 106.857 161.07C106.157 161.07 105.639 160.907 105.303 160.58C104.967 160.244 104.799 159.651 104.799 158.802V155.33H103.357V154H104.799V152.18L106.269 151.676V154H107.893V155.33H106.269V158.704ZM115.384 161H113.914V156.842C113.914 156.245 113.746 155.815 113.41 155.554C113.084 155.293 112.696 155.162 112.248 155.162C111.903 155.162 111.581 155.265 111.282 155.47C110.993 155.675 110.797 156.002 110.694 156.45V161H109.224V151.2H110.694V154.672C110.946 154.42 111.231 154.224 111.548 154.084C111.866 153.935 112.206 153.86 112.57 153.86C112.981 153.86 113.396 153.949 113.816 154.126C114.246 154.294 114.614 154.597 114.922 155.036C115.23 155.475 115.384 156.067 115.384 156.814V161ZM118.487 159.264C118.487 159.423 118.52 159.535 118.585 159.6C118.66 159.656 118.777 159.684 118.935 159.684C119.057 159.684 119.201 159.67 119.369 159.642V161C118.959 161.056 118.669 161.084 118.501 161.084C118.025 161.084 117.657 160.958 117.395 160.706C117.143 160.454 117.017 160.006 117.017 159.362V151.2H118.487V159.264ZM125.209 154H126.763L124.201 161.14C123.846 162.045 123.365 162.731 122.759 163.198C122.152 163.665 121.447 163.865 120.645 163.8V162.386C120.691 162.395 120.761 162.4 120.855 162.4C121.676 162.4 122.311 161.873 122.759 160.818L119.623 154H121.205L123.459 158.858L125.209 154ZM135.096 153.846C135.199 153.846 135.278 153.851 135.334 153.86L135.222 155.26C135.119 155.232 135.021 155.218 134.928 155.218C134.349 155.218 133.864 155.395 133.472 155.75C133.08 156.095 132.884 156.585 132.884 157.22V161H131.414V154H132.884V155.19C133.043 154.817 133.313 154.499 133.696 154.238C134.088 153.977 134.555 153.846 135.096 153.846ZM139.392 153.818C140.074 153.818 140.68 153.986 141.212 154.322C141.744 154.649 142.16 155.097 142.458 155.666C142.757 156.226 142.906 156.842 142.906 157.514C142.906 157.626 142.888 157.803 142.85 158.046H137.194C137.316 158.606 137.577 159.054 137.978 159.39C138.389 159.726 138.907 159.894 139.532 159.894C139.915 159.894 140.279 159.81 140.624 159.642C140.979 159.474 141.24 159.255 141.408 158.984L142.556 159.656C142.239 160.141 141.819 160.519 141.296 160.79C140.774 161.051 140.176 161.182 139.504 161.182C138.758 161.182 138.095 161.023 137.516 160.706C136.947 160.389 136.504 159.95 136.186 159.39C135.878 158.83 135.724 158.2 135.724 157.5C135.724 156.809 135.878 156.184 136.186 155.624C136.504 155.064 136.938 154.625 137.488 154.308C138.048 153.981 138.683 153.818 139.392 153.818ZM141.506 156.884C141.432 156.333 141.203 155.899 140.82 155.582C140.447 155.265 139.971 155.106 139.392 155.106C138.991 155.106 138.622 155.19 138.286 155.358C137.95 155.517 137.684 155.736 137.488 156.016C137.292 156.287 137.19 156.576 137.18 156.884H141.506ZM146.599 159.264L148.615 154H150.183L147.495 161H145.689L143.015 154H144.569L146.599 159.264ZM154.062 153.818C154.744 153.818 155.35 153.986 155.882 154.322C156.414 154.649 156.83 155.097 157.128 155.666C157.427 156.226 157.576 156.842 157.576 157.514C157.576 157.626 157.558 157.803 157.52 158.046H151.864C151.986 158.606 152.247 159.054 152.648 159.39C153.059 159.726 153.577 159.894 154.202 159.894C154.585 159.894 154.949 159.81 155.294 159.642C155.649 159.474 155.91 159.255 156.078 158.984L157.226 159.656C156.909 160.141 156.489 160.519 155.966 160.79C155.444 161.051 154.846 161.182 154.174 161.182C153.428 161.182 152.765 161.023 152.186 160.706C151.617 160.389 151.174 159.95 150.856 159.39C150.548 158.83 150.394 158.2 150.394 157.5C150.394 156.809 150.548 156.184 150.856 155.624C151.174 155.064 151.608 154.625 152.158 154.308C152.718 153.981 153.353 153.818 154.062 153.818ZM156.176 156.884C156.102 156.333 155.873 155.899 155.49 155.582C155.117 155.265 154.641 155.106 154.062 155.106C153.661 155.106 153.292 155.19 152.956 155.358C152.62 155.517 152.354 155.736 152.158 156.016C151.962 156.287 151.86 156.576 151.85 156.884H156.176ZM162.16 153.818C162.571 153.818 162.986 153.907 163.406 154.084C163.835 154.252 164.204 154.56 164.512 155.008C164.82 155.456 164.974 156.058 164.974 156.814V161H163.504V156.814C163.504 156.217 163.336 155.787 163 155.526C162.664 155.255 162.272 155.12 161.824 155.12C161.385 155.12 161.007 155.274 160.69 155.582C160.373 155.89 160.214 156.389 160.214 157.08V161H158.744V154H160.214V154.7C160.466 154.439 160.755 154.229 161.082 154.07C161.418 153.902 161.777 153.818 162.16 153.818ZM170.991 154H172.461V161H170.991V160.3C170.739 160.561 170.445 160.776 170.109 160.944C169.783 161.103 169.428 161.182 169.045 161.182C168.635 161.182 168.215 161.098 167.785 160.93C167.365 160.753 167.001 160.44 166.693 159.992C166.385 159.544 166.231 158.942 166.231 158.186V154H167.701V158.186C167.701 158.783 167.865 159.213 168.191 159.474C168.527 159.735 168.919 159.866 169.367 159.866C169.806 159.866 170.184 159.712 170.501 159.404C170.828 159.096 170.991 158.597 170.991 157.906V154ZM177.332 153.818C178.013 153.818 178.62 153.986 179.152 154.322C179.684 154.649 180.099 155.097 180.398 155.666C180.697 156.226 180.846 156.842 180.846 157.514C180.846 157.626 180.827 157.803 180.79 158.046H175.134C175.255 158.606 175.517 159.054 175.918 159.39C176.329 159.726 176.847 159.894 177.472 159.894C177.855 159.894 178.219 159.81 178.564 159.642C178.919 159.474 179.18 159.255 179.348 158.984L180.496 159.656C180.179 160.141 179.759 160.519 179.236 160.79C178.713 161.051 178.116 161.182 177.444 161.182C176.697 161.182 176.035 161.023 175.456 160.706C174.887 160.389 174.443 159.95 174.126 159.39C173.818 158.83 173.664 158.2 173.664 157.5C173.664 156.809 173.818 156.184 174.126 155.624C174.443 155.064 174.877 154.625 175.428 154.308C175.988 153.981 176.623 153.818 177.332 153.818ZM179.446 156.884C179.371 156.333 179.143 155.899 178.76 155.582C178.387 155.265 177.911 155.106 177.332 155.106C176.931 155.106 176.562 155.19 176.226 155.358C175.89 155.517 175.624 155.736 175.428 156.016C175.232 156.287 175.129 156.576 175.12 156.884H179.446Z" fill="#7D888A"/>
<path d="M34.7256 145C34.7256 119.937 44.6818 95.9006 62.404 78.1784C80.1262 60.4562 104.163 50.5 129.226 50.5C154.289 50.5 178.325 60.4562 196.047 78.1784C213.769 95.9006 223.726 119.937 223.726 145" stroke="#E5EBEC" stroke-width="15" stroke-linecap="round"/>
<path d="M34.7256 144.995C34.7264 129.624 38.4768 114.485 45.6515 100.891C52.8261 87.2969 63.2085 75.6583 75.8984 66.9842" stroke="#FDB52A" stroke-width="15" stroke-linecap="round"/>
</g>
<defs>
<clipPath id="clip0_3268_31894">
<rect width="259" height="224" fill="white"/>
</clipPath>
</defs>
</svg>
